<svg xmlns="http://www.w3.org/2000/svg" viewBox="0 0 735.64 288.49"><defs><style>.cls-1{fill:#51321c;}.cls-2{fill:none;stroke:#51321c;stroke-linecap:round;stroke-miterlimit:10;stroke-width:10px;}</style></defs><g id="文字"><path class="cls-1" d="M80.15,322.08q-12,3.87-23.86,8.45c-3.42,1.33-5.75,1.66-7,.94s-1.63-2.49-1.18-5.35q4-24.86,7.94-49.71a14,14,0,0,1,3.1-7.16,17.67,17.67,0,0,1,7.09-4.61Q78,260.1,90,256.29a58.35,58.35,0,0,1,9.11-2.22,16.64,16.64,0,0,1,6.75.23,10.6,10.6,0,0,1,4.32,2.23,9.08,9.08,0,0,1,2.65,3.84,11.63,11.63,0,0,1,.53,5.11c-.66,6.5-5,12.14-13,17.29,9.76-.07,14.38,4.07,13.6,11.89a21.37,21.37,0,0,1-4.37,10.62,34.19,34.19,0,0,1-9.88,8.83,60.39,60.39,0,0,1-8.52,4.1C88,319.47,84.3,320.75,80.15,322.08ZM70.6,272.45q-1.25,8.49-2.48,17,6.94-2.56,14-4.88a49.32,49.32,0,0,0,9-3.76,15,15,0,0,0,5.22-5,10.24,10.24,0,0,0,1.78-4.55c.39-3.29-.71-5.09-3.27-5.36s-6.58.44-12,2.26C78.68,269.53,74.63,271,70.6,272.45Zm12.16,21q-8.06,2.63-16,5.56l-2.79,19.2q8.39-3.1,16.86-5.84c10.68-3.43,16.45-8.05,17.17-14.49.37-3.28-.73-5.28-3.29-6S88.14,291.68,82.76,293.43Z" transform="translate(-34.26 -184.39)"/><path class="cls-1" d="M204.59,278a22.9,22.9,0,0,1-8.36,17.82,32.09,32.09,0,0,1-9.66,5.45A48.92,48.92,0,0,1,174,304a42.6,42.6,0,0,1-12.29-.44,23.79,23.79,0,0,1-9.19-3.78A15.7,15.7,0,0,1,147,293a20.48,20.48,0,0,1-1.37-9.53,28.08,28.08,0,0,1,2.71-10.3,29.11,29.11,0,0,1,6.3-8.59,32.39,32.39,0,0,1,9.39-6.13,38,38,0,0,1,11.88-3,34,34,0,0,1,11.87.83,24.11,24.11,0,0,1,9.11,4.5,20.18,20.18,0,0,1,5.76,7.49A23.28,23.28,0,0,1,204.59,278Zm-14.91.59c.12-4.86-1.11-8.58-3.67-11.12s-6-3.64-10.44-3.23a16.46,16.46,0,0,0-7.61,2.57,15.38,15.38,0,0,0-5.3,5.95,20.57,20.57,0,0,0-2.22,8.51,16.12,16.12,0,0,0,1.33,8,9.81,9.81,0,0,0,4.83,4.78,15.16,15.16,0,0,0,7.76,1.07,16.78,16.78,0,0,0,11-4.95C188.14,287.28,189.57,283.44,189.68,278.63Z" transform="translate(-34.26 -184.39)"/><path class="cls-1" d="M293.86,285.5a20.35,20.35,0,0,1-1.27,9.51,14.89,14.89,0,0,1-5.41,6.72,22.41,22.41,0,0,1-9.12,3.47,43.77,43.77,0,0,1-12.36.06,48.22,48.22,0,0,1-12.45-3.05,34.63,34.63,0,0,1-9.67-5.76,24.4,24.4,0,0,1-6.27-8.07,23.89,23.89,0,0,1-2.26-9.91,22.83,22.83,0,0,1,1.83-9.82,19.06,19.06,0,0,1,5.64-7.33,22.49,22.49,0,0,1,9-4.2,33.7,33.7,0,0,1,11.73-.49,38.92,38.92,0,0,1,12,3.35,34.56,34.56,0,0,1,9.47,6.46,30.65,30.65,0,0,1,6.39,8.78A28.64,28.64,0,0,1,293.86,285.5ZM279.11,283a19.27,19.27,0,0,0-4.67-12,16.62,16.62,0,0,0-10.76-5.47,13.51,13.51,0,0,0-7.44,1,10,10,0,0,0-4.83,4.88,17.14,17.14,0,0,0-1.48,8.12A19.41,19.41,0,0,0,252,287.8a15.13,15.13,0,0,0,5.32,5.84,18.35,18.35,0,0,0,7.92,2.73c4.55.54,8.09-.32,10.59-2.67S279.43,287.78,279.11,283Z" transform="translate(-34.26 -184.39)"/><path class="cls-1" d="M365.64,324.06q-7.67-11.25-15.16-22.22-3.45,1.82-7,3.7l1.23,9.67q.45,3.51-1.54,4.71a5.93,5.93,0,0,1-4.91.33,11.75,11.75,0,0,1-5.57-3.42,10.56,10.56,0,0,1-2.57-6q-2.94-25.83-5.87-51.65c-.31-2.69.06-4.57,1.08-5.64s2.62-1.3,4.81-.65a10.79,10.79,0,0,1,5.28,3.45,11.72,11.72,0,0,1,2.59,6.24l3.75,29.5q7.11-4.65,13.9-9a17.2,17.2,0,0,1,3.88-2.06,5.52,5.52,0,0,1,3.54.41,11.65,11.65,0,0,1,4.5,3.13,8.56,8.56,0,0,1,2.29,4.35c.27,1.81-1.21,3.45-4.53,5q-3.25,1.56-6.56,3.18,8.63,12.48,17.48,25.35c1.3,1.91,2.26,3.34,2.85,4.3a7.14,7.14,0,0,1,1.05,2.48c.31,2-.06,3.24-1.13,3.86s-2.61.52-4.66-.29a11.17,11.17,0,0,1-4.25-2.79A68.56,68.56,0,0,1,365.64,324.06Z" transform="translate(-34.26 -184.39)"/><path class="cls-1" d="M571.17,293a28.57,28.57,0,0,1-2.68,10.4,33.22,33.22,0,0,1-6.46,9.18,44.33,44.33,0,0,1-9.64,7.36,58.85,58.85,0,0,1-12.21,5.22,41.79,41.79,0,0,1-11.67,2.11,16.7,16.7,0,0,1-8.43-1.84,10.27,10.27,0,0,1-4.77-5.67,20.25,20.25,0,0,1-.7-9.34,37.41,37.41,0,0,1,3.15-11,43.54,43.54,0,0,1,6.41-10.1,44.66,44.66,0,0,1,9.21-8.23,42.78,42.78,0,0,1,11.46-5.48,30.42,30.42,0,0,1,11.32-1.51,17.18,17.18,0,0,1,8.54,2.84,14.21,14.21,0,0,1,5.16,6.52A21.49,21.49,0,0,1,571.17,293Zm-14.47,3.37c.39-4.95-.59-8.48-2.9-10.56s-5.58-2.5-9.81-1.2a20,20,0,0,0-7.4,4.17,22.79,22.79,0,0,0-5.37,7.14,27.16,27.16,0,0,0-2.6,9.08,15.49,15.49,0,0,0,.79,7.79,6.38,6.38,0,0,0,4.29,3.82,13.06,13.06,0,0,0,7.33-.52,21.76,21.76,0,0,0,15.67-19.72Z" transform="translate(-34.26 -184.39)"/><path class="cls-1" d="M619,293.92c-.06,3.35-.11,6.7-.17,10a7.3,7.3,0,0,1-2.24,5.61,9,9,0,0,1-5.5,2.19,7.2,7.2,0,0,1-5.29-1.41c-1.35-1.11-2-2.86-1.91-5.27q.52-16.75,1.06-33.51c.17-5.4,2.58-8.36,7.22-8.72,2.38-.18,4.08.35,5.11,1.55a8.64,8.64,0,0,1,1.64,5.5,23.91,23.91,0,0,1,5.39-5.83,12.28,12.28,0,0,1,7.24-2.07,20.31,20.31,0,0,1,8.79,1.92c2.85,1.31,4.3,3,4.32,5.12a4.28,4.28,0,0,1-1.8,3.58,6.35,6.35,0,0,1-4,1.36,23.62,23.62,0,0,1-3.86-.84,19.9,19.9,0,0,0-5.4-.76,9.09,9.09,0,0,0-5.22,1.52,9.67,9.67,0,0,0-3.2,4.25,25.84,25.84,0,0,0-1.65,6.57A83.22,83.22,0,0,0,619,293.92Z" transform="translate(-34.26 -184.39)"/><path class="cls-1" d="M723.1,299.75l1.44,16.19c.23,2.56-.29,4.27-1.57,5.16s-3.08,1-5.38.4a11.4,11.4,0,0,1-5.57-3.29,10,10,0,0,1-2.5-6.23l-1.44-19.32a55.54,55.54,0,0,0-.89-7.19,10.08,10.08,0,0,0-2.29-4.62,9.21,9.21,0,0,0-5.22-2.74c-4.66-1-7.67-.19-9,2.26s-1.88,6.21-1.6,11.28L690,308c.13,2.51-.46,4.28-1.79,5.33a6.9,6.9,0,0,1-5.46,1.05,9.92,9.92,0,0,1-5.65-2.7,8.41,8.41,0,0,1-2.39-5.94q-.68-17.23-1.37-34.47c-.09-2.27.47-3.91,1.66-4.93a5.74,5.74,0,0,1,4.8-1.09,8.72,8.72,0,0,1,5,2.41,7.12,7.12,0,0,1,2.2,4.9l.06,1.15a17.33,17.33,0,0,1,7.61-4.09,20.4,20.4,0,0,1,9.19.21,24.67,24.67,0,0,1,16,11.28,13.82,13.82,0,0,1,7.06-3.31,18.47,18.47,0,0,1,8.68,1.1,31.46,31.46,0,0,1,9.9,5.49,27.37,27.37,0,0,1,6.71,8.07,32.88,32.88,0,0,1,3,11.23l2.91,24c.31,2.59-.12,4.25-1.32,5s-2.92.67-5.16-.2a13.54,13.54,0,0,1-5.55-3.95,11.84,11.84,0,0,1-2.7-6.52q-1.1-10.29-2.2-20.59a48.17,48.17,0,0,0-1.06-6.46,11.68,11.68,0,0,0-2.49-4.72,11.24,11.24,0,0,0-5.26-3.34,8.68,8.68,0,0,0-5.11-.24,5.71,5.71,0,0,0-3.53,2.66Q722.42,292,723.1,299.75Z" transform="translate(-34.26 -184.39)"/></g><g id="線"><path class="cls-2" d="M39.26,241.25A295.83,295.83,0,0,1,161.62,193c127.53-19.72,225.66,48.3,240.46,58.9" transform="translate(-34.26 -184.39)"/><path class="cls-2" d="M764.9,241.25A295.83,295.83,0,0,0,642.55,193c-127.54-19.72-225.67,48.3-240.47,58.9" transform="translate(-34.26 -184.39)"/><path class="cls-2" d="M39.26,390.23a295.67,295.67,0,0,1,122.36-48.3c127.53-19.72,225.66,48.3,240.46,58.9" transform="translate(-34.26 -184.39)"/><path class="cls-2" d="M764.9,390.23a295.68,295.68,0,0,0-122.35-48.3c-127.54-19.72-225.67,48.3-240.47,58.9" transform="translate(-34.26 -184.39)"/><path class="cls-2" d="M39.26,452.69C97,412,169,396,240,402c11,1,21,4,32,5,14,3,27,7,41,11,21,7,40,16,59.5,26.77" transform="translate(-34.26 -184.39)"/><path class="cls-2" d="M764.9,452.69C728,426,686,411,640,404c-73-11-146,5-208.14,41" transform="translate(-34.26 -184.39)"/><path class="cls-2" d="M372.5,445.56c-.72,2.19-1.94,8,.34,12.66s7,6,11.59,7c14.55,3.2,16.41,3.42,27.6,1.1,4.77-1,12.33-2.11,15.35-5.85,3.81-4.71,4-9.58,3.81-14.92" transform="translate(-34.26 -184.39)"/></g><g id="レイヤー_3" data-name="レイヤー 3"><path class="cls-2" d="M757.49,429.63c-36.9-26.9-81.9-42.9-127.9-49.77" transform="translate(-34.26 -184.39)"/><path class="cls-2" d="M741.71,397.37c-16.51-10.47-34.92-17.44-53.42-23.5" transform="translate(-34.26 -184.39)"/></g><g id="レイヤー_4" data-name="レイヤー 4"><path class="cls-1" d="M468.17,278.92c-.61-5.9,2.48-11.75,7.54-15.93q-1.6-2.52-3.09-5c-.58-1,0-2.41,1.39-3.22s2.86-.7,3.4.26q1.41,2.44,2.91,4.91a27.05,27.05,0,0,1,7.39-2.64,21.47,21.47,0,0,1,7.67-.18q2.47-3.36,5.16-6.65a3.67,3.67,0,0,1,3.74-1.33c1.12.42,1.25,1.69.33,2.85-1.72,2.15-3.37,4.31-5,6.5,4.5,2.2,7.21,6.5,7.33,12.1a22.67,22.67,0,0,1-17.09,21.84C479.66,294.83,469.21,288.78,468.17,278.92Z" transform="translate(-34.26 -184.39)"/><path class="cls-1" d="M464.57,312.51a14.36,14.36,0,0,1,4.42-6l0,.05c1.18,1.48,2.24,2.81,3.19,3.86a19.71,19.71,0,0,0,1.84,1.84,5.81,5.81,0,0,0,.86.63c.29.17.3.14.31.15a1.79,1.79,0,0,0,.69-.09,6.51,6.51,0,0,0,1-.34,25.1,25.1,0,0,0,6.21,3.24,29.43,29.43,0,0,0,13,1.47,19.66,19.66,0,0,1-3.45,6.2,17.53,17.53,0,0,1-9.23,5.64,19.73,19.73,0,0,1-8.87.25,24.38,24.38,0,0,1-7.19-2.71,28.07,28.07,0,0,1-2.59-1.65c-.16-.45-.32-.91-.46-1.38A17.6,17.6,0,0,1,464.57,312.51Z" transform="translate(-34.26 -184.39)"/><path class="cls-1" d="M408.61,314.77c3.15-3.24,8.75-3,12.53.56,1.33,1.23,2.57,2.42,3.73,3.53-.56.55-1.17,1.19-1.79,1.92-2.21,2.66-4.49,6.45-4.35,11.14A12.41,12.41,0,0,0,419,334c-.93-.69-1.82-1.39-2.65-2.07-2.23-1.83-4.18-3.58-5.85-5C406.28,323.48,405.45,318,408.61,314.77Z" transform="translate(-34.26 -184.39)"/><path class="cls-1" d="M479.38,309.8a16.9,16.9,0,0,0,.93-4.42,50.32,50.32,0,0,0,.11-6.71,26.15,26.15,0,0,0,10.88-.23,26.92,26.92,0,0,0,6.71-2.62c.05,1.19.1,2.38.12,3.58a84.49,84.49,0,0,1-.21,8.71,43.55,43.55,0,0,1-.7,5.09c-.38.07-.75.15-1.14.21a25.09,25.09,0,0,1-11.95-1.14A20.7,20.7,0,0,1,479.38,309.8Z" transform="translate(-34.26 -184.39)"/><path class="cls-1" d="M440.46,317.43a20.7,20.7,0,0,1-5.33-6,27.21,27.21,0,0,1-2.23-4.78,16.88,16.88,0,0,1,.93-2.05,17.17,17.17,0,0,1,4.59-5.49,19.27,19.27,0,0,1,7.34-3.44,19.78,19.78,0,0,1,4.52-.57,17.77,17.77,0,0,1,7.91,1.74,21.82,21.82,0,0,1,5.06,3.41,38.3,38.3,0,0,1,3.11,3.17,18.1,18.1,0,0,0-5.64,7.38,19.22,19.22,0,0,0-1.13,9.87c-1-1-1.93-2-2.77-3-1.16-1.31-2.18-2.47-3-3.37a17.85,17.85,0,0,0-1.62-1.52,3.85,3.85,0,0,0-.66-.46l-.11-.06h-.05a2.72,2.72,0,0,0-.39.07,1.38,1.38,0,0,0-.67.3,1.67,1.67,0,0,0-.39.61,7.57,7.57,0,0,0-.46,1.61,27.78,27.78,0,0,0-.29,5.06c0,.14,0,.3,0,.45h-.73A14.75,14.75,0,0,1,440.46,317.43Z" transform="translate(-34.26 -184.39)"/><path class="cls-1" d="M424.6,326.41a20.31,20.31,0,0,1,3.53-4.59c.36.31.72.61,1.05.87a18.9,18.9,0,0,0,2,1.38l0-.16a41.47,41.47,0,0,0,.1-5.1c0-1.67,0-3.56.17-5.6l.06-.42a25,25,0,0,0,6.69,7.52A20.15,20.15,0,0,0,449,324.26h.3c0,.21,0,.41,0,.62,0,1.33,0,2.71-.09,4.16a21,21,0,0,1-.5,3.33,11.81,11.81,0,0,1-2.46,5,10.75,10.75,0,0,1-5.44,3.27,15.87,15.87,0,0,1-5.11.51,21.67,21.67,0,0,1-4.61-.77,31.13,31.13,0,0,1-6.89-2.93A11.08,11.08,0,0,1,423,333,12.26,12.26,0,0,1,424.6,326.41Z" transform="translate(-34.26 -184.39)"/></g></svg>